# xmcd
#
# Track frame offsets:
#	150
#	13657
#	40327
#	54070
#	67425
#	80275
#	96836
#	108962
#	123470
#	138645
#	151926
#	166908
#	181671
#	195329
#	208563
#	224432
#	238733
#	250862
#	265868
#	277957
#	288690
#	300258
#	315511
#	328199
#
# Disc length: 4709 seconds
#
# Revision: 0
# Processed by: cddbd v1.5.2PL0 Copyright (c) Steve Scherf et al.
# Submitted via: dBpowerAMP V4.0
#
DISCID=53126318
DTITLE=Duke Ellington - Black beauty
DYEAR=1924
DGENRE=Blues
TTITLE0=in a jam
TTITLE1=Dimiuendo and crescendo in ble
TTITLE2=Prelude to a kiss
TTITLE3=Battle of swing
TTITLE4=Grievin
TTITLE5=Sophisticated lady
TTITLE6=Ko-ko
TTITLE7=Cotton tail
TTITLE8=Dusk
TTITLE9=Harlem airshaft
TTITLE10=In a mellotone
TTITLE11=Warm valley
TTITLE12=Pinther Panther patter
TTITLE13=Take the a train
TTITLE14=Solitude
TTITLE15=Perdido
TTITLE16=Johnny come lately
TTITLE17=Things aint what they used to be
TTITLE18=Frenkie and Johnny
TTITLE19=Dancers in love
TTITLE20=Blue skies (trumpet no end)
TTITLE21=Stop, look and listen
TTITLE22=Smada
TTITLE23=Happy go lucky local
EXTD=
EXTT0=
EXTT1=
EXTT2=
EXTT3=
EXTT4=
EXTT5=
EXTT6=
EXTT7=
EXTT8=
EXTT9=
EXTT10=
EXTT11=
EXTT12=
EXTT13=
EXTT14=
EXTT15=
EXTT16=
EXTT17=
EXTT18=
EXTT19=
EXTT20=
EXTT21=
EXTT22=
EXTT23=
PLAYORDER=
